<?xml version="1.0" encoding="UTF-8" standalone="no"?>
<!DOCTYPE svg PUBLIC "-//W3C//DTD SVG 1.1//EN" "http://www.w3.org/Graphics/SVG/1.1/DTD/svg11.dtd">
<svg width="100%" height="100%" viewBox="0 0 26 26" version="1.1" xmlns="http://www.w3.org/2000/svg" xmlns:xlink="http://www.w3.org/1999/xlink" xml:space="preserve" xmlns:serif="http://www.serif.com/" style="fill-rule:evenodd;clip-rule:evenodd;stroke-linejoin:round;stroke-miterlimit:1.41421;">
    <path d="M1,13.945c-0.189,-0.189 -0.283,-0.473 -0.283,-0.662c0,-0.189 0.094,-0.472 0.283,-0.661l1.323,-1.323c0.378,-0.378 0.945,-0.378 1.323,0l0.094,0.095l5.197,5.574c0.189,0.189 0.472,0.189 0.661,0l12.662,-13.133l0.094,0c0.378,-0.378 0.945,-0.378 1.323,0l1.323,1.323c0.378,0.378 0.378,0.944 0,1.322l-15.118,15.685c-0.189,0.189 -0.378,0.284 -0.661,0.284c-0.284,0 -0.473,-0.095 -0.662,-0.284l-7.37,-7.937l-0.189,-0.283Z" style="fill-rule:nonzero;"/>
</svg>
