<?xml version="1.0" encoding="UTF-8" standalone="no"?>
<!DOCTYPE svg PUBLIC "-//W3C//DTD SVG 1.1//EN" "http://www.w3.org/Graphics/SVG/1.1/DTD/svg11.dtd">
<svg width="100%" height="100%" viewBox="0 0 24 24" version="1.1" xmlns="http://www.w3.org/2000/svg" xmlns:xlink="http://www.w3.org/1999/xlink" xml:space="preserve" xmlns:serif="http://www.serif.com/" style="fill-rule:evenodd;clip-rule:evenodd;stroke-linejoin:round;stroke-miterlimit:1.41421;">
    <g transform="matrix(1.13337,0,0,1.10131,-1.60042,-0.483662)">
        <path d="M18,2L6,2C4.9,2 4,2.9 4,4L4,15C4,15.63 4.3,16.22 4.8,16.6L12,22L19.2,16.6C19.7,16.22 20,15.63 20,15L20,4C20,2.9 19.1,2 18,2ZM13,15L11,15L11,13L13,13L13,15ZM13,11L11,11L11,5L13,5L13,11Z" style="fill:white;fill-rule:nonzero;"/>
    </g>
</svg>
