<?xml version="1.0" encoding="UTF-8" standalone="no"?>
<!DOCTYPE svg PUBLIC "-//W3C//DTD SVG 1.1//EN" "http://www.w3.org/Graphics/SVG/1.1/DTD/svg11.dtd">
<svg width="100%" height="100%" viewBox="0 0 613 613" version="1.1" xmlns="http://www.w3.org/2000/svg" xmlns:xlink="http://www.w3.org/1999/xlink" xml:space="preserve" xmlns:serif="http://www.serif.com/" style="fill-rule:evenodd;clip-rule:evenodd;stroke-linejoin:round;stroke-miterlimit:1.41421;">
    <g>
        <path d="M352.031,12.805C348.045,13.179 344.037,14.349 339.982,15.585L339.982,13.732L336.275,14.658L51.73,87.88C50.788,88.143 49.86,88.452 48.949,88.807C22.092,99.55 4.073,128.577 10.021,158.321C10.002,158.939 10.002,159.557 10.021,160.175L63.779,361.303C63.774,361.612 63.774,361.921 63.779,362.229C80.698,419.753 126.347,454.835 172.221,475.306C186.278,498.032 204.058,518.146 221.345,534.625C264.285,575.558 309.396,599.505 309.396,599.505C315.004,602.729 321.516,604.031 327.933,603.212C327.933,603.212 340.961,600.898 360.373,595.797C379.785,590.697 405.581,582.811 432.668,570.772C452.983,561.743 474.976,550.339 494.767,535.552C501.364,530.622 507.234,525.477 513.304,519.795C537.585,497.069 556.877,467.829 563.355,430.817L601.356,223.201C601.671,222.899 601.98,222.59 602.283,222.274C607.796,189.192 585.503,158.858 555.013,152.76C554.704,152.755 554.395,152.755 554.086,152.76L432.668,130.515L412.277,57.294C412.126,56.541 411.528,56.175 411.35,55.44C407.498,39.469 397.013,27.884 384.471,20.22C375.401,14.676 363.99,11.68 352.031,12.805ZM213.003,107.344L213.003,108.271C198.791,117.22 187.52,130.962 182.417,146.272C182.028,147.487 181.719,148.725 181.49,149.979L171.294,211.152C168.589,211.144 165.625,211.411 162.953,212.079C139.225,218.011 127.732,252.86 127.732,252.86C127.732,252.86 143.222,266.538 161.099,270.471L146.269,357.595C144.592,367.182 144.278,376.237 144.416,385.401C134.235,374.331 125.955,361.742 121.244,346.473L67.487,146.272C67.504,146.357 67.466,145.539 70.267,144.418L213.003,107.344ZM241.735,158.321C242.501,157.582 243.262,158.112 244.516,158.321L394.667,185.2L350.178,425.256L261.199,410.426L263.98,415.987C275.641,450.971 304.274,478.05 339.055,484.575L328.86,541.113C321.5,536.912 294.433,521.859 262.126,491.063C230.277,460.702 204.532,423.231 203.734,384.474C203.62,378.937 203.686,373.362 204.661,367.791L238.955,164.809C240.201,161.07 240.97,159.061 241.735,158.321ZM293.639,261.202C272.635,262.338 251.931,282.52 251.931,282.52C251.931,282.52 267.131,318.482 290.859,321.448C314.586,327.38 340.909,301.057 340.909,301.057C340.909,301.057 326.636,265.095 302.908,262.129C299.942,261.388 296.64,261.04 293.639,261.202ZM474.376,293.642C477.377,293.48 480.679,293.828 483.645,294.569C505.395,297.288 519.418,326.64 521.646,331.643L521.646,332.57L520.719,334.424C516.749,337.793 493.298,356.601 471.596,353.888C447.868,350.922 433.595,315.887 433.595,315.887C433.595,315.887 453.372,294.778 474.376,293.642Z" style="fill:white;fill-rule:nonzero;"/>
    </g>
</svg>
