<?xml version="1.0" encoding="UTF-8" standalone="no"?>
<!DOCTYPE svg PUBLIC "-//W3C//DTD SVG 1.1//EN" "http://www.w3.org/Graphics/SVG/1.1/DTD/svg11.dtd">
<svg width="100%" height="100%" viewBox="0 0 613 613" version="1.1" xmlns="http://www.w3.org/2000/svg" xmlns:xlink="http://www.w3.org/1999/xlink" xml:space="preserve" xmlns:serif="http://www.serif.com/" style="fill-rule:evenodd;clip-rule:evenodd;stroke-linejoin:round;stroke-miterlimit:1.41421;">
    <g transform="matrix(11.4116,0,0,11.4116,33.2077,156.116)">
        <path d="M44,-10.749L4,-10.749C1.8,-10.749 0,-8.949 0,-6.749L0,33.105C0,35.305 1.8,37.105 4,37.105L44,37.105C46.2,37.105 48,35.305 48,33.105L48,-6.749C48,-8.949 46.2,-10.749 44,-10.749Z" style="fill:rgb(255,193,7);fill-rule:nonzero;"/>
    </g>
    <g transform="matrix(13.5694,0,0,13.5694,-19.659,128.247)">
        <path d="M28.1,6.192L24.4,6.192L24.4,19.292L28.1,19.292C30.1,19.292 30.9,18.892 31.4,18.592C32,18.192 32.3,17.492 32.3,16.792L32.3,8.892C32.3,7.992 31.9,7.192 31.4,6.892C30.6,6.392 30.3,6.192 28.1,6.192ZM28.8,16.492C28.8,17.092 28.1,17.092 27.5,17.092L27.5,8.192C28.1,8.192 28.8,8.192 28.8,8.792L28.8,16.492Z" style="fill:rgb(38,50,56);fill-rule:nonzero;"/>
        <path d="M33.8,6.192L33.8,19.492L36.6,19.492C36.6,19.492 36.8,18.592 37,18.792C37.4,18.792 38.5,19.392 39.2,19.392C39.9,19.392 40.3,19.392 40.7,19.192C41.3,18.792 41.4,18.492 41.4,17.892L41.4,10.092C41.4,8.992 40.3,8.292 39.4,8.292C38.5,8.292 37.6,8.892 37.2,9.192L37.2,6.192L33.8,6.192ZM37.4,10.392C37.4,9.992 37.4,9.792 37.8,9.792C38,9.792 38.2,9.992 38.2,10.392L38.2,16.992C38.2,17.392 38.2,17.592 37.8,17.592C37.6,17.592 37.4,17.392 37.4,16.992L37.4,10.392Z" style="fill:rgb(38,50,56);fill-rule:nonzero;"/>
        <path d="M22.7,19.492L22.7,6.192L18.3,6.192L17.5,12.492L16.4,6.192L12.4,6.192L12.4,19.492L15.3,19.492L15.3,12.092L16.6,19.492L18.6,19.492L19.9,12.092L19.9,19.492L22.7,19.492Z" style="fill:rgb(38,50,56);fill-rule:nonzero;"/>
        <rect x="7.6" y="6.192" width="3.1" height="13.3" style="fill:rgb(38,50,56);"/>
    </g>
</svg>
