<?xml version="1.0" encoding="UTF-8" standalone="no"?>
<!DOCTYPE svg PUBLIC "-//W3C//DTD SVG 1.1//EN" "http://www.w3.org/Graphics/SVG/1.1/DTD/svg11.dtd">
<svg width="100%" height="100%" viewBox="0 0 48 27" version="1.1" xmlns="http://www.w3.org/2000/svg" xmlns:xlink="http://www.w3.org/1999/xlink" xml:space="preserve" xmlns:serif="http://www.serif.com/" style="fill-rule:evenodd;clip-rule:evenodd;stroke-linejoin:round;stroke-miterlimit:1.41421;">
    <rect id="Artboard1" x="0" y="0" width="48" height="26.385" style="fill:none;"/>
    <path d="M44,1.192l-40,0c-2.2,0 -4,1.8 -4,4l0,16c0,2.2 1.8,4 4,4l40,0c2.2,0 4,-1.8 4,-4l0,-16c0,-2.2 -1.8,-4 -4,-4Z" style="fill:rgb(255,193,7);fill-rule:nonzero;"/>
    <g>
        <path d="M28.1,6.192l-3.7,0l0,13.1l3.7,0c2,0 2.8,-0.4 3.3,-0.7c0.6,-0.4 0.9,-1.1 0.9,-1.8l0,-7.9c0,-0.9 -0.4,-1.7 -0.9,-2c-0.8,-0.5 -1.1,-0.7 -3.3,-0.7Zm0.7,10.3c0,0.6 -0.7,0.6 -1.3,0.6l0,-8.9c0.6,0 1.3,0 1.3,0.6l0,7.7Z" style="fill:rgb(38,50,56);fill-rule:nonzero;"/>
        <path d="M33.8,6.192l0,13.3l2.8,0c0,0 0.2,-0.9 0.4,-0.7c0.4,0 1.5,0.6 2.2,0.6c0.7,0 1.1,0 1.5,-0.2c0.6,-0.4 0.7,-0.7 0.7,-1.3l0,-7.8c0,-1.1 -1.1,-1.8 -2,-1.8c-0.9,0 -1.8,0.6 -2.2,0.9l0,-3l-3.4,0Zm3.6,4.2c0,-0.4 0,-0.6 0.4,-0.6c0.2,0 0.4,0.2 0.4,0.6l0,6.6c0,0.4 0,0.6 -0.4,0.6c-0.2,0 -0.4,-0.2 -0.4,-0.6l0,-6.6Z" style="fill:rgb(38,50,56);fill-rule:nonzero;"/>
        <path d="M22.7,19.492l0,-13.3l-4.4,0l-0.8,6.3l-1.1,-6.3l-4,0l0,13.3l2.9,0l0,-7.4l1.3,7.4l2,0l1.3,-7.4l0,7.4l2.8,0Z" style="fill:rgb(38,50,56);fill-rule:nonzero;"/>
        <rect x="7.6" y="6.192" width="3.1" height="13.3" style="fill:rgb(38,50,56);"/>
    </g>
</svg>
