<?xml version="1.0" encoding="UTF-8" standalone="no"?>
<!DOCTYPE svg PUBLIC "-//W3C//DTD SVG 1.1//EN" "http://www.w3.org/Graphics/SVG/1.1/DTD/svg11.dtd">
<svg width="100%" height="100%" viewBox="0 0 613 613" version="1.1" xmlns="http://www.w3.org/2000/svg" xmlns:xlink="http://www.w3.org/1999/xlink" xml:space="preserve" xmlns:serif="http://www.serif.com/" style="fill-rule:evenodd;clip-rule:evenodd;stroke-linejoin:round;stroke-miterlimit:1.41421;">
    <g>
        <path d="M306.003,0C474.891,0 612.006,137.115 612.006,306.003C612.006,474.891 474.891,612.006 306.003,612.006C137.115,612.006 0,474.891 0,306.003C0,137.115 137.115,0 306.003,0ZM306.003,50.564C165.022,50.565 50.564,165.023 50.564,306.003C50.564,446.983 165.022,561.441 306.003,561.442L306.003,537.768L306.003,514.006C320.654,514.006 333.195,506.021 340.051,494.197L345.623,494.197C367.513,494.196 385.242,476.466 385.242,454.577L385.242,421.148C385.242,401.911 400.216,385.127 420.529,360.48C440.842,335.833 464.482,303.165 464.482,256.478C464.482,169.188 393.294,98 306.003,98L306.003,60.602L306.003,50.564ZM306.003,98L306.003,137.619C371.882,137.62 424.862,190.6 424.862,256.478C424.862,290.141 408.882,311.673 389.576,335.099C371.504,357.026 350.338,381.185 347.48,414.957L306.003,414.957L306.003,514.006C291.352,514.006 278.81,506.021 271.955,494.197L266.383,494.197C244.493,494.196 226.764,476.467 226.764,454.577L226.764,421.148C226.764,401.479 211.786,384.388 191.477,359.861C171.169,335.334 147.524,303.265 147.524,256.478C147.524,169.188 218.712,98 306.003,98ZM306.003,137.619C240.124,137.619 187.144,190.599 187.144,256.478C187.144,290.279 203.119,311.775 222.43,335.099C240.506,356.93 261.666,380.996 264.526,414.957L306.003,414.957L306.003,137.619Z" style="fill:white;"/>
    </g>
</svg>
