<?xml version="1.0" encoding="UTF-8" standalone="no"?>
<!DOCTYPE svg PUBLIC "-//W3C//DTD SVG 1.1//EN" "http://www.w3.org/Graphics/SVG/1.1/DTD/svg11.dtd">
<svg width="100%" height="100%" viewBox="0 0 24 24" version="1.1" xmlns="http://www.w3.org/2000/svg" xmlns:xlink="http://www.w3.org/1999/xlink" xml:space="preserve" xmlns:serif="http://www.serif.com/" style="fill-rule:evenodd;clip-rule:evenodd;stroke-linejoin:round;stroke-miterlimit:1.41421;">
    <g transform="matrix(1.10862,0,0,1.10862,-0.948333,-1.39137)">
        <path d="M10.069,21.459C9.179,21.459 8.459,20.738 8.459,19.848L8.459,18.489C8.459,17.69 7.85,16.995 7.024,15.998C6.199,15.001 5.238,13.698 5.238,11.796C5.238,8.248 8.132,5.354 11.68,5.354C15.228,5.354 18.122,8.248 18.122,11.796C18.122,13.693 17.161,15.021 16.335,16.023C15.509,17.025 14.901,17.707 14.901,18.489L14.901,19.848C14.901,20.738 14.18,21.459 13.29,21.459L13.064,21.459C12.785,21.939 12.275,22.264 11.68,22.264C11.084,22.264 10.574,21.939 10.296,21.459L10.069,21.459ZM13.366,18.238C13.482,16.865 14.342,15.883 15.077,14.992C15.862,14.039 16.511,13.164 16.511,11.796C16.511,9.118 14.358,6.964 11.68,6.964C9.002,6.964 6.848,9.118 6.848,11.796C6.848,13.17 7.498,14.043 8.283,14.992C9.017,15.879 9.877,16.857 9.994,18.238L13.366,18.238Z"/>
    </g>
    <g transform="matrix(0.892697,0,0,0.892697,1.28763,3.00129)">
        <path d="M10.219,6.781L8.781,8.219L10.563,10L8.781,11.781L10.219,13.219L12,11.438L13.781,13.219L15.219,11.781L13.438,10L15.219,8.219L13.781,6.781L12,8.563L10.219,6.781Z"/>
    </g>
</svg>
