<?xml version="1.0" encoding="UTF-8" standalone="no"?>
<!DOCTYPE svg PUBLIC "-//W3C//DTD SVG 1.1//EN" "http://www.w3.org/Graphics/SVG/1.1/DTD/svg11.dtd">
<svg width="100%" height="100%" viewBox="0 0 613 613" version="1.1" xmlns="http://www.w3.org/2000/svg" xmlns:xlink="http://www.w3.org/1999/xlink" xml:space="preserve" xmlns:serif="http://www.serif.com/" style="fill-rule:evenodd;clip-rule:evenodd;stroke-linejoin:round;stroke-miterlimit:1.41421;">
    <g>
        <path d="M353.835,570.383C344.204,586.994 326.585,598.212 306.003,598.212C285.421,598.212 267.802,586.994 258.171,570.383L250.344,570.383C219.592,570.382 194.685,545.475 194.685,514.724L194.685,467.762C194.685,440.131 173.644,416.121 145.114,381.664C116.585,347.208 83.368,302.156 83.368,236.429C83.368,113.801 183.374,13.794 306.003,13.794C428.632,13.794 528.638,113.801 528.638,236.429C528.638,302.016 495.428,347.909 466.892,382.534C438.355,417.159 417.321,440.737 417.321,467.762L417.321,514.724C417.321,545.475 392.414,570.382 361.662,570.383L353.835,570.383ZM364.271,459.065C368.286,411.622 398.021,377.682 423.408,346.877C450.531,313.968 472.98,283.719 472.98,236.429C472.98,143.881 398.551,69.453 306.003,69.453C213.455,69.453 139.026,143.881 139.026,236.429C139.026,283.913 161.468,314.112 188.598,346.877C213.992,377.547 243.717,411.355 247.735,459.065L364.271,459.065Z"/>
        <path d="M227.969,188.408L279.992,355.043L266.986,233.115L345.02,233.115L332.014,355.043L384.037,188.408L349.897,198.975L262.109,198.975L227.969,188.408Z"/>
    </g>
</svg>
