<?xml version="1.0" encoding="UTF-8" standalone="no"?>
<!DOCTYPE svg PUBLIC "-//W3C//DTD SVG 1.1//EN" "http://www.w3.org/Graphics/SVG/1.1/DTD/svg11.dtd">
<svg width="100%" height="100%" viewBox="0 0 613 613" version="1.1" xmlns="http://www.w3.org/2000/svg" xmlns:xlink="http://www.w3.org/1999/xlink" xml:space="preserve" xmlns:serif="http://www.serif.com/" style="fill-rule:evenodd;clip-rule:evenodd;stroke-linejoin:round;stroke-miterlimit:1.41421;">
    <g id="path3481" transform="matrix(4.18007,0,0,4.18007,24.2661,-2929.42)">
        <path d="M123.885,772.028C123.885,803.519 97.977,829.436 66.485,829.445C34.993,829.454 9.069,803.553 9.051,772.061C9.033,740.57 34.926,714.638 66.418,714.611C97.909,714.583 123.848,740.469 123.885,771.961" style="fill-rule:nonzero;"/>
    </g>
    <g id="path3402" transform="matrix(4.18007,0,0,4.18007,24.2661,-2929.42)">
        <path d="M67.46,708.469C31.448,708.501 1.838,738.155 1.859,774.167C1.88,810.18 31.525,839.8 67.538,839.789C103.551,839.778 133.18,810.141 133.179,774.128L133.179,774.052C133.137,738.038 103.473,708.436 67.46,708.469ZM67.16,722.501C95.368,722.476 118.602,745.662 118.635,773.87L118.635,773.93C118.635,802.137 95.428,825.35 67.221,825.358C39.014,825.366 15.794,802.167 15.777,773.959C15.761,745.753 38.954,722.527 67.16,722.501Z" style="fill:rgb(255,206,53);fill-rule:nonzero;"/>
    </g>
    <g id="path3345" transform="matrix(2.95576,-2.95576,2.95576,2.95576,24.2661,-2929.42)">
        <path d="M-536.161,618.687L-520.328,618.687L-520.328,588.199C-520.328,586.915 -520.221,585.418 -519.686,584.134C-518.724,581.459 -516.263,578.25 -512.091,578.25C-506.956,578.25 -504.603,582.743 -504.603,589.376L-504.603,618.687L-488.77,618.687L-488.77,588.092C-488.77,586.808 -488.556,585.097 -488.129,583.92C-487.059,580.818 -484.384,578.25 -480.64,578.25C-475.398,578.25 -472.938,582.636 -472.938,590.231L-472.938,618.687L-457.106,618.687L-457.106,587.878C-457.106,572.259 -464.701,565.199 -474.757,565.199C-478.608,565.199 -481.817,566.055 -484.705,567.767C-487.166,569.264 -489.519,571.297 -491.445,574.078L-491.659,574.078C-493.905,568.622 -499.254,565.199 -505.993,565.199C-514.979,565.199 -519.579,570.12 -521.826,573.436L-522.147,573.436L-522.896,566.376L-536.589,566.376C-536.375,570.976 -536.161,576.539 -536.161,583.064L-536.161,618.687Z" style="fill:white;fill-rule:nonzero;"/>
    </g>
</svg>
