<?xml version="1.0" encoding="UTF-8" standalone="no"?>
<!DOCTYPE svg PUBLIC "-//W3C//DTD SVG 1.1//EN" "http://www.w3.org/Graphics/SVG/1.1/DTD/svg11.dtd">
<svg width="100%" height="100%" viewBox="0 0 613 613" version="1.1" xmlns="http://www.w3.org/2000/svg" xmlns:xlink="http://www.w3.org/1999/xlink" xml:space="preserve" xmlns:serif="http://www.serif.com/" style="fill-rule:evenodd;clip-rule:evenodd;stroke-linejoin:round;stroke-miterlimit:1.41421;">
    <g transform="matrix(11.9749,0,0,11.9749,9.35391,8.07172)">
        <path d="M49.207,15.093L46.107,11.993C45.746,11.631 45.171,11.601 44.775,11.919C43.879,12.636 42.878,13 41.8,13C39.208,13 37.1,10.892 37.1,8.3C37.1,7.222 37.464,6.221 38.181,5.325C38.5,4.927 38.468,4.353 38.108,3.993L35.007,0.893C33.952,-0.163 32.046,-0.16 30.995,0.891L25.632,6.219L27.007,7.594C27.398,7.984 27.398,8.617 27.007,9.008C26.812,9.202 26.556,9.3 26.3,9.3C26.044,9.3 25.788,9.202 25.593,9.007L24.214,7.628L0.793,30.893C0.265,31.42 -0.025,32.133 -0.025,32.9C-0.025,33.668 0.266,34.38 0.793,34.908L3.893,38.008C4.254,38.368 4.826,38.401 5.225,38.082C6.176,37.319 7.269,36.9 8.3,36.9C10.892,36.9 13,39.008 13,41.599C13,42.735 12.594,43.811 11.857,44.63C11.501,45.026 11.517,45.63 11.893,46.006L14.993,49.107C15.52,49.634 16.233,49.924 17,49.924C17.767,49.924 18.479,49.634 19.007,49.107L42.351,25.763L40.994,24.407C40.603,24.017 40.603,23.384 40.994,22.993C41.385,22.602 42.017,22.602 42.408,22.993L43.765,24.349L49.064,19.05C49.614,18.61 49.956,17.952 50.007,17.233C50.063,16.438 49.771,15.657 49.207,15.093ZM28.393,10.393C28.784,10.002 29.416,10.002 29.807,10.393L31.211,11.797C31.602,12.187 31.602,12.82 31.211,13.211C31.016,13.406 30.76,13.504 30.504,13.504C30.248,13.504 29.992,13.406 29.797,13.211L28.393,11.807C28.002,11.417 28.002,10.784 28.393,10.393ZM25.9,29.5L24.6,35.4L21.6,30.099L15.6,30.599L19.7,26.099L17.3,20.499L22.8,22.999L27.401,18.999L26.6,25.2L31.8,28.3L25.9,29.5ZM35.422,17.422C35.227,17.617 34.971,17.715 34.715,17.715C34.459,17.715 34.203,17.617 34.008,17.422L32.605,16.018C32.214,15.627 32.214,14.994 32.605,14.604C32.996,14.213 33.628,14.213 34.019,14.604L35.422,16.008C35.813,16.399 35.813,17.032 35.422,17.422ZM39.634,21.634C39.439,21.829 39.183,21.927 38.927,21.927C38.671,21.927 38.415,21.829 38.22,21.634L36.816,20.23C36.425,19.84 36.425,19.207 36.816,18.816C37.207,18.425 37.839,18.425 38.23,18.816L39.634,20.22C40.024,20.61 40.024,21.243 39.634,21.634Z" style="fill-rule:nonzero;"/>
    </g>
</svg>
