<?xml version="1.0" encoding="UTF-8" standalone="no"?>
<!DOCTYPE svg PUBLIC "-//W3C//DTD SVG 1.1//EN" "http://www.w3.org/Graphics/SVG/1.1/DTD/svg11.dtd">
<svg width="100%" height="100%" viewBox="0 0 613 613" version="1.1" xmlns="http://www.w3.org/2000/svg" xmlns:xlink="http://www.w3.org/1999/xlink" xml:space="preserve" xmlns:serif="http://www.serif.com/" style="fill-rule:evenodd;clip-rule:evenodd;stroke-linejoin:round;stroke-miterlimit:1.41421;">
    <g id="path9" transform="matrix(12.835,0,0,12.835,-369.797,-333.177)">
        <path d="M69.902,72.704L58.967,61.769C55.97,63.73 52.388,64.88 48.523,64.88C37.984,64.88 29.461,56.338 29.461,45.799C29.461,35.28 37.983,26.738 48.523,26.738C59.044,26.738 67.583,35.28 67.583,45.799C67.583,49.478 66.547,52.906 64.755,55.81L75.768,66.821C76.351,67.388 75.862,68.802 74.692,69.969L73.052,71.613C71.882,72.78 70.468,73.269 69.902,72.704ZM61.249,45.799C61.249,38.766 55.554,33.072 48.522,33.072C41.489,33.072 35.777,38.766 35.777,45.799C35.777,52.832 41.489,58.544 48.522,58.544C55.554,58.544 61.249,52.833 61.249,45.799Z" style="fill:white;fill-rule:nonzero;"/>
    </g>
</svg>
