<?xml version="1.0" encoding="UTF-8" standalone="no"?>
<!DOCTYPE svg PUBLIC "-//W3C//DTD SVG 1.1//EN" "http://www.w3.org/Graphics/SVG/1.1/DTD/svg11.dtd">
<svg width="100%" height="100%" viewBox="0 0 613 613" version="1.1" xmlns="http://www.w3.org/2000/svg" xmlns:xlink="http://www.w3.org/1999/xlink" xml:space="preserve" xmlns:serif="http://www.serif.com/" style="fill-rule:evenodd;clip-rule:evenodd;stroke-linejoin:round;stroke-miterlimit:1.41421;">
    <g>
        <path d="M40.478,73.037C26.733,73.679 15.774,85.162 15.774,98.921C15.774,113.136 27.471,124.833 41.686,124.833C42.092,124.833 42.498,124.824 42.904,124.804L340.566,124.804C340.688,124.806 340.81,124.807 340.932,124.807C355.133,124.807 366.819,113.122 366.819,98.921C366.819,84.72 355.133,73.035 340.932,73.035C340.81,73.035 340.688,73.035 340.566,73.037L42.904,73.037L40.478,73.037Z"/>
        <path d="M465.04,85.574C451.775,87.032 441.7,98.521 441.987,111.863L441.987,431.364L384.153,373.53C379.313,368.417 372.59,365.494 365.549,365.441C365.483,365.441 365.418,365.441 365.352,365.441C351.151,365.441 339.465,377.126 339.465,391.327C339.465,398.337 342.313,405.054 347.35,409.929L467.871,530.45L486.07,512.25L588.391,409.929C593.402,405.057 596.232,398.358 596.232,391.369C596.232,377.169 584.547,365.483 570.346,365.483C563.258,365.483 556.473,368.394 551.588,373.53L493.754,431.364L493.754,111.863C493.756,111.728 493.758,111.593 493.758,111.458C493.758,97.257 482.072,85.571 467.871,85.571C467.736,85.571 467.601,85.572 467.466,85.574L465.04,85.574Z"/>
        <path d="M40.478,176.572C26.733,177.213 15.774,188.696 15.774,202.456C15.774,216.671 27.471,228.368 41.686,228.368C42.092,228.368 42.498,228.358 42.904,228.339L249.973,228.339C250.095,228.341 250.218,228.342 250.34,228.342C264.54,228.342 276.226,216.656 276.226,202.455C276.226,188.255 264.54,176.569 250.34,176.569C250.218,176.569 250.095,176.57 249.973,176.572L42.904,176.572L40.478,176.572Z"/>
        <path d="M40.478,280.106C26.733,280.748 15.774,292.231 15.774,305.99C15.774,320.205 27.471,331.902 41.686,331.902C42.092,331.902 42.498,331.893 42.904,331.874L198.206,331.874C198.328,331.875 198.45,331.876 198.572,331.876C212.773,331.876 224.458,320.191 224.458,305.99C224.458,291.789 212.773,280.104 198.572,280.104C198.45,280.104 198.328,280.105 198.206,280.106L42.904,280.106L40.478,280.106Z"/>
        <path d="M40.478,383.641C26.733,384.282 15.774,395.765 15.774,409.525C15.774,423.74 27.471,435.437 41.686,435.437C42.092,435.437 42.498,435.427 42.904,435.408L146.439,435.408C146.561,435.41 146.683,435.411 146.805,435.411C161.006,435.411 172.691,423.725 172.691,409.525C172.691,395.324 161.006,383.638 146.805,383.638C146.683,383.638 146.561,383.639 146.439,383.641L42.904,383.641L40.478,383.641Z"/>
        <path d="M40.478,487.176C26.733,487.817 15.774,499.3 15.774,513.059C15.774,527.274 27.471,538.971 41.686,538.971C42.092,538.971 42.498,538.962 42.904,538.943L94.672,538.943C94.794,538.945 94.916,538.945 95.038,538.945C109.238,538.945 120.924,527.26 120.924,513.059C120.924,498.858 109.238,487.173 95.038,487.173C94.916,487.173 94.794,487.174 94.672,487.176L42.904,487.176L40.478,487.176Z"/>
    </g>
</svg>
