<?xml version="1.0" encoding="UTF-8" standalone="no"?>
<!DOCTYPE svg PUBLIC "-//W3C//DTD SVG 1.1//EN" "http://www.w3.org/Graphics/SVG/1.1/DTD/svg11.dtd">
<svg width="100%" height="100%" viewBox="0 0 613 613" version="1.1" xmlns="http://www.w3.org/2000/svg" xmlns:xlink="http://www.w3.org/1999/xlink" xml:space="preserve" xmlns:serif="http://www.serif.com/" style="fill-rule:evenodd;clip-rule:evenodd;stroke-linejoin:round;stroke-miterlimit:1.41421;">
    <g>
        <path d="M40.478,73.037c-13.745,0.642 -24.704,12.125 -24.704,25.884c0,14.215 11.697,25.912 25.912,25.912c0.406,0 0.812,-0.009 1.218,-0.029l297.662,0c0.122,0.002 0.244,0.003 0.366,0.003c14.201,0 25.887,-11.685 25.887,-25.886c0,-14.201 -11.686,-25.886 -25.887,-25.886c-0.122,0 -0.244,0 -0.366,0.002l-297.662,0l-2.426,0Z"/>
        <path d="M465.04,538.968c-13.265,-1.458 -23.34,-12.947 -23.053,-26.289l0,-319.501l-57.834,57.834c-4.84,5.113 -11.563,8.036 -18.604,8.089c-0.066,0 -0.131,0 -0.197,0c-14.201,0 -25.887,-11.685 -25.887,-25.886c0,-7.01 2.848,-13.727 7.885,-18.602l120.521,-120.521l18.199,18.2l102.321,102.321c5.011,4.872 7.841,11.571 7.841,18.56c0,14.2 -11.685,25.886 -25.886,25.886c-7.088,0 -13.873,-2.911 -18.758,-8.047l-57.834,-57.834l0,319.501c0.002,0.135 0.004,0.27 0.004,0.405c0,14.201 -11.686,25.887 -25.887,25.887c-0.135,0 -0.27,-0.001 -0.405,-0.003l-2.426,0Z"/>
        <path d="M40.478,176.572c-13.745,0.641 -24.704,12.124 -24.704,25.884c0,14.215 11.697,25.912 25.912,25.912c0.406,0 0.812,-0.01 1.218,-0.029l207.069,0c0.122,0.002 0.245,0.003 0.367,0.003c14.2,0 25.886,-11.686 25.886,-25.887c0,-14.2 -11.686,-25.886 -25.886,-25.886c-0.122,0 -0.245,0.001 -0.367,0.003l-207.069,0l-2.426,0Z"/>
        <path d="M40.478,280.106c-13.745,0.642 -24.704,12.125 -24.704,25.884c0,14.215 11.697,25.912 25.912,25.912c0.406,0 0.812,-0.009 1.218,-0.028l155.302,0c0.122,0.001 0.244,0.002 0.366,0.002c14.201,0 25.886,-11.685 25.886,-25.886c0,-14.201 -11.685,-25.886 -25.886,-25.886c-0.122,0 -0.244,0.001 -0.366,0.002l-155.302,0l-2.426,0Z"/>
        <path d="M40.478,383.641c-13.745,0.641 -24.704,12.124 -24.704,25.884c0,14.215 11.697,25.912 25.912,25.912c0.406,0 0.812,-0.01 1.218,-0.029l103.535,0c0.122,0.002 0.244,0.003 0.366,0.003c14.201,0 25.886,-11.686 25.886,-25.886c0,-14.201 -11.685,-25.887 -25.886,-25.887c-0.122,0 -0.244,0.001 -0.366,0.003l-103.535,0l-2.426,0Z"/>
        <path d="M40.478,487.176c-13.745,0.641 -24.704,12.124 -24.704,25.883c0,14.215 11.697,25.912 25.912,25.912c0.406,0 0.812,-0.009 1.218,-0.028l51.768,0c0.122,0.002 0.244,0.002 0.366,0.002c14.2,0 25.886,-11.685 25.886,-25.886c0,-14.201 -11.686,-25.886 -25.886,-25.886c-0.122,0 -0.244,0.001 -0.366,0.003l-51.768,0l-2.426,0Z"/>
    </g>
</svg>
