<?xml version="1.0" encoding="UTF-8" standalone="no"?>
<!DOCTYPE svg PUBLIC "-//W3C//DTD SVG 1.1//EN" "http://www.w3.org/Graphics/SVG/1.1/DTD/svg11.dtd">
<svg width="100%" height="100%" viewBox="0 0 64 64" version="1.1" xmlns="http://www.w3.org/2000/svg" xmlns:xlink="http://www.w3.org/1999/xlink" xml:space="preserve" xmlns:serif="http://www.serif.com/" style="fill-rule:evenodd;clip-rule:evenodd;stroke-linejoin:round;stroke-miterlimit:1.41421;">
    <path d="M31.999,4.926l0,46.862c-0.525,0 -1.051,0.125 -1.528,0.376l-12.482,6.53c-2.409,1.262 -5.225,-0.777 -4.765,-3.447l2.383,-13.835c0.181,-1.061 -0.171,-2.144 -0.945,-2.894l-10.096,-9.798c-1.949,-1.892 -0.875,-5.187 1.819,-5.577l13.954,-2.017c1.07,-0.155 1.996,-0.823 2.472,-1.79l6.241,-12.587c0.604,-1.215 1.775,-1.823 2.947,-1.823Z" style="fill:rgb(255,193,7);fill-rule:nonzero;"/>
    <path d="M47.86,61.011c-0.76,0 -1.528,-0.183 -2.235,-0.553l-12.736,-6.649c-0.556,-0.292 -1.221,-0.292 -1.777,0l-12.736,6.649c-1.639,0.856 -3.581,0.708 -5.071,-0.38c-1.479,-1.078 -2.205,-2.865 -1.894,-4.662l2.434,-14.082c0.103,-0.608 -0.099,-1.227 -0.544,-1.658l-10.305,-9.974c-1.317,-1.275 -1.785,-3.147 -1.222,-4.888c0.565,-1.751 2.052,-3.003 3.881,-3.267l14.24,-2.055c0.621,-0.09 1.156,-0.474 1.432,-1.03l6.368,-12.812c0.816,-1.639 2.465,-2.661 4.305,-2.661c1.839,0 3.488,1.02 4.305,2.661l6.368,12.812c0.275,0.556 0.812,0.94 1.431,1.03l14.239,2.054c1.83,0.265 3.317,1.517 3.883,3.268c0.564,1.741 0.094,3.613 -1.223,4.888l-10.305,9.974c-0.445,0.431 -0.646,1.05 -0.543,1.66l2.433,14.08c0.311,1.797 -0.414,3.584 -1.894,4.662c-0.844,0.618 -1.836,0.933 -2.834,0.933Zm-15.86,-10.322c0.766,0 1.533,0.182 2.231,0.546l12.735,6.65c0.662,0.346 1.416,0.29 2.019,-0.151c0.589,-0.431 0.869,-1.113 0.746,-1.826l-2.434,-14.082c-0.268,-1.554 0.251,-3.138 1.385,-4.236l10.305,-9.974c0.522,-0.507 0.702,-1.221 0.48,-1.91c-0.226,-0.699 -0.802,-1.181 -1.539,-1.289l-14.237,-2.053c-1.562,-0.225 -2.914,-1.201 -3.616,-2.611l-6.368,-12.812c-0.328,-0.657 -0.965,-1.051 -1.707,-1.051c-0.743,0 -1.38,0.394 -1.708,1.052l-6.367,12.813c-0.702,1.41 -2.054,2.386 -3.617,2.611l-14.238,2.054c-0.735,0.105 -1.31,0.587 -1.538,1.288c-0.221,0.69 -0.042,1.404 0.481,1.91l10.304,9.974c1.134,1.098 1.654,2.682 1.385,4.234l-2.434,14.083c-0.123,0.714 0.156,1.395 0.746,1.826c0.601,0.443 1.356,0.498 2.019,0.151l12.736,-6.649c0.699,-0.366 1.465,-0.548 2.231,-0.548Z" style="fill:rgb(255,201,65);fill-rule:nonzero;"/>
</svg>
