<?xml version="1.0" encoding="UTF-8" standalone="no"?>
<!DOCTYPE svg PUBLIC "-//W3C//DTD SVG 1.1//EN" "http://www.w3.org/Graphics/SVG/1.1/DTD/svg11.dtd">
<svg width="100%" height="100%" viewBox="0 0 613 613" version="1.1" xmlns="http://www.w3.org/2000/svg" xmlns:xlink="http://www.w3.org/1999/xlink" xml:space="preserve" xmlns:serif="http://www.serif.com/" style="fill-rule:evenodd;clip-rule:evenodd;stroke-linejoin:round;stroke-miterlimit:1.41421;">
    <g transform="matrix(9.51103,0,0,9.51103,10.0708,2.147)">
        <g transform="matrix(0.105141,0,0,0.105141,-1.05886,-0.225738)">
            <path d="M307.091,99.797C166.023,99.797 51.663,214.148 51.663,355.235C51.663,496.283 166.023,610.653 307.091,610.653C448.158,610.653 562.51,496.283 562.51,355.235C562.51,214.148 448.158,99.797 307.091,99.797ZM307.091,550.389C199.295,550.389 111.918,463.012 111.918,355.233C111.918,247.438 199.287,160.061 307.091,160.061C414.853,160.061 502.264,247.43 502.264,355.233C502.255,463.004 414.853,550.389 307.091,550.389Z" style="fill:white;"/>
        </g>
        <path d="M37.75,0.021L24.706,0.021C23.693,0.021 22.864,0.834 22.864,1.863L22.864,3.383C22.864,4.411 23.693,5.239 24.706,5.239L25.351,5.239L25.351,6.854C25.381,7.283 25.585,8.102 26.742,7.96C26.742,7.96 26.743,7.96 26.745,7.96C28.51,7.693 31.787,7.386 35.539,7.939C35.545,7.94 35.547,7.939 35.555,7.94C36.847,8.09 37.074,7.194 37.106,6.728L37.106,5.238L37.751,5.238C38.765,5.238 39.593,4.41 39.593,3.382L39.593,1.862C39.592,0.834 38.764,0.021 37.75,0.021Z" style="fill:white;fill-rule:nonzero;"/>
        <path d="M51.617,15.888C51.617,15.888 52.728,16.925 53.658,15.595L53.658,15.594L54.775,13.995C55.252,13.307 54.634,12.831 54.572,12.784L46.293,6.999C45.783,6.645 45.445,6.86 45.266,7.06L45.12,7.273L43.907,9.007C43.907,9.007 43.132,10.199 44.2,10.75C44.202,10.751 44.202,10.751 44.202,10.752C45.782,11.523 48.759,13.184 51.614,15.891L51.617,15.888Z" style="fill:white;fill-rule:nonzero;"/>
        <path d="M50.344,35.278C48.658,21.577 38.16,18.609 33.474,17.981C33.465,17.98 33.453,17.98 33.444,17.977C33.372,17.967 33.309,17.961 33.241,17.953C31.403,17.645 31.238,19.04 31.229,19.47L31.229,35.189C31.238,35.609 31.397,37.084 33.165,37.115C35.722,37.108 40.874,37.099 48.683,37.12C50.143,37.104 50.35,35.958 50.344,35.278Z" style="fill:white;fill-rule:nonzero;"/>
    </g>
</svg>
