<?xml version="1.0" encoding="UTF-8" standalone="no"?>
<!DOCTYPE svg PUBLIC "-//W3C//DTD SVG 1.1//EN" "http://www.w3.org/Graphics/SVG/1.1/DTD/svg11.dtd">
<svg width="100%" height="100%" viewBox="0 0 24 24" version="1.1" xmlns="http://www.w3.org/2000/svg" xmlns:xlink="http://www.w3.org/1999/xlink" xml:space="preserve" xmlns:serif="http://www.serif.com/" style="fill-rule:evenodd;clip-rule:evenodd;stroke-linejoin:round;stroke-miterlimit:1.41421;">
    <path d="M13.563,2.094C13.428,2.106 13.293,2.146 13.156,2.188L13.156,2.125L13.031,2.156L3.438,4.625C3.406,4.634 3.374,4.644 3.344,4.656C2.438,5.018 1.831,5.997 2.031,7C2.031,7.021 2.031,7.042 2.031,7.063L3.844,13.844C3.844,13.854 3.844,13.865 3.844,13.875C4.414,15.814 5.953,16.997 7.5,17.688C7.974,18.454 8.573,19.132 9.156,19.688C10.604,21.068 12.125,21.875 12.125,21.875C12.314,21.984 12.534,22.028 12.75,22C12.75,22 13.189,21.922 13.844,21.75C14.498,21.578 15.368,21.312 16.281,20.906C16.966,20.602 17.708,20.217 18.375,19.719C18.597,19.553 18.795,19.379 19,19.188C19.819,18.421 20.469,17.435 20.688,16.188L21.969,9.188C21.979,9.177 21.99,9.167 22,9.156C22.186,8.041 21.434,7.018 20.406,6.813C20.396,6.812 20.385,6.812 20.375,6.813L16.281,6.063L15.594,3.594C15.589,3.568 15.568,3.556 15.563,3.531C15.433,2.993 15.079,2.602 14.656,2.344C14.35,2.157 13.966,2.056 13.563,2.094ZM8.875,5.281L8.875,5.313C8.396,5.614 8.016,6.078 7.844,6.594C7.831,6.635 7.82,6.676 7.812,6.719L7.469,8.781C7.378,8.781 7.278,8.79 7.188,8.813C6.388,9.013 6,10.188 6,10.188C6,10.188 6.522,10.649 7.125,10.781L6.625,13.719C6.568,14.042 6.558,14.347 6.563,14.656C6.219,14.283 5.94,13.859 5.781,13.344L3.969,6.594C3.969,6.597 3.968,6.569 4.063,6.531L8.875,5.281ZM9.844,7C9.87,6.975 9.895,6.993 9.938,7L15,7.906L13.5,16L10.5,15.5L10.594,15.688C10.987,16.867 11.952,17.78 13.125,18L12.781,19.906C12.533,19.765 11.62,19.257 10.531,18.219C9.457,17.195 8.589,15.932 8.563,14.625C8.559,14.438 8.561,14.25 8.594,14.063L9.75,7.219C9.792,7.093 9.818,7.025 9.844,7ZM11.594,10.469C10.886,10.507 10.188,11.188 10.188,11.188C10.188,11.188 10.7,12.4 11.5,12.5C12.3,12.7 13.188,11.813 13.188,11.813C13.188,11.813 12.706,10.6 11.906,10.5C11.806,10.475 11.695,10.463 11.594,10.469ZM17.688,11.563C17.789,11.557 17.9,11.569 18,11.594C18.733,11.685 19.206,12.675 19.281,12.844L19.281,12.875L19.25,12.938C19.116,13.051 18.325,13.685 17.594,13.594C16.794,13.494 16.313,12.313 16.313,12.313C16.313,12.313 16.979,11.601 17.688,11.563Z" style="fill-rule:nonzero;"/>
</svg>
