<?xml version="1.0" encoding="UTF-8" standalone="no"?>
<!DOCTYPE svg PUBLIC "-//W3C//DTD SVG 1.1//EN" "http://www.w3.org/Graphics/SVG/1.1/DTD/svg11.dtd">
<svg width="100%" height="100%" viewBox="0 0 613 613" version="1.1" xmlns="http://www.w3.org/2000/svg" xmlns:xlink="http://www.w3.org/1999/xlink" xml:space="preserve" xmlns:serif="http://www.serif.com/" style="fill-rule:evenodd;clip-rule:evenodd;stroke-linejoin:round;stroke-miterlimit:1.41421;">
    <g transform="matrix(30.1762,0,0,30.1762,-55.6144,-57.9719)">
        <path d="M17.438,2.156L11.094,6.438L7.688,3.281L6.313,4.719L8.781,7L4,7C2.9,7 2,7.9 2,9L2,20C2,21.1 2.9,22 4,22L20,22C21.1,22 22,21.1 22,20L22,9C22,7.9 21.1,7 20,7L13.844,7L18.563,3.844L17.438,2.156ZM8.25,9C8.77,8.987 9.35,9 10,9C15.3,9 16,9 16,14.5C16,20 15.2,20 10,20C4.8,20 4,19.9 4,14.5C4,9.775 4.613,9.093 8.25,9ZM19,13C19.6,13 20,13.4 20,14C20,14.6 19.6,15 19,15C18.4,15 18,14.6 18,14C18,13.4 18.4,13 19,13ZM19,17C19.6,17 20,17.4 20,18C20,18.6 19.6,19 19,19C18.4,19 18,18.6 18,18C18,17.4 18.4,17 19,17Z" style="fill-rule:nonzero;"/>
    </g>
</svg>
